<svg preserveAspectRatio="none" width="100%" height="100%" overflow="visible" style="display: block;" viewBox="0 0 33 32" fill="none" xmlns="http://www.w3.org/2000/svg">
<g id="Vector">
<path d="M9.62524 32C4.95854 32 0.000343742 30.5363 0.000343742 27.8261C0.000343742 27.4421 0.308341 27.1304 0.687837 27.1304C1.06733 27.1304 1.37533 27.4421 1.37533 27.8261C1.37533 28.9878 4.51305 30.6087 9.62524 30.6087C14.7374 30.6087 17.8752 28.9878 17.8752 27.8261C17.8752 27.4421 18.1832 27.1304 18.5627 27.1304C18.9421 27.1304 19.2501 27.4421 19.2501 27.8261C19.2501 30.5363 14.2919 32 9.62524 32Z" fill="var(--fill-0, #9A74E0)"/>
<path d="M9.62524 27.8261C4.95854 27.8261 0.000343742 26.3624 0.000343742 23.6522C0.000343742 23.2682 0.308341 22.9565 0.687837 22.9565C1.06733 22.9565 1.37533 23.2682 1.37533 23.6522C1.37533 24.8139 4.51305 26.4348 9.62524 26.4348C14.7374 26.4348 17.8752 24.8139 17.8752 23.6522C17.8752 23.2682 18.1832 22.9565 18.5627 22.9565C18.9421 22.9565 19.2501 23.2682 19.2501 23.6522C19.2501 26.3624 14.2919 27.8261 9.62524 27.8261Z" fill="var(--fill-0, #9A74E0)"/>
<path d="M9.62524 23.6522C4.95854 23.6522 0.000343742 22.1885 0.000343742 19.4783C0.000343742 16.768 4.95854 15.3043 9.62524 15.3043C14.2919 15.3043 19.2501 16.768 19.2501 19.4783C19.2501 22.1885 14.2919 23.6522 9.62524 23.6522ZM9.62524 16.6957C4.51305 16.6957 1.37533 18.3165 1.37533 19.4783C1.37533 20.64 4.51305 22.2609 9.62524 22.2609C14.7374 22.2609 17.8752 20.64 17.8752 19.4783C17.8752 18.3165 14.7374 16.6957 9.62524 16.6957Z" fill="var(--fill-0, #9A74E0)"/>
<path d="M0.687837 28.5217C0.308341 28.5217 0.000343742 28.2101 0.000343742 27.8261V19.4783C0.000343742 19.0943 0.308341 18.7826 0.687837 18.7826C1.06733 18.7826 1.37533 19.0943 1.37533 19.4783V27.8261C1.37533 28.2101 1.06733 28.5217 0.687837 28.5217Z" fill="var(--fill-0, #9A74E0)"/>
<path d="M18.5627 28.5217C18.1832 28.5217 17.8752 28.2101 17.8752 27.8261V19.4783C17.8752 19.0943 18.1832 18.7826 18.5627 18.7826C18.9421 18.7826 19.2501 19.0943 19.2501 19.4783V27.8261C19.2501 28.2101 18.9421 28.5217 18.5627 28.5217Z" fill="var(--fill-0, #9A74E0)"/>
<path d="M23.3751 15.3043C18.7084 15.3043 13.7502 13.8407 13.7502 11.1304C13.7502 10.7464 14.0582 10.4348 14.4377 10.4348C14.8172 10.4348 15.1252 10.7464 15.1252 11.1304C15.1252 12.2922 18.2629 13.913 23.3751 13.913C28.4873 13.913 31.625 12.2922 31.625 11.1304C31.625 10.7464 31.933 10.4348 32.3125 10.4348C32.692 10.4348 33 10.7464 33 11.1304C33 13.8407 28.0418 15.3043 23.3751 15.3043Z" fill="var(--fill-0, #9A74E0)"/>
<path d="M23.3751 23.6522C22.579 23.6522 21.8805 23.6202 21.2397 23.5506C20.863 23.5103 20.588 23.168 20.6293 22.7854C20.6705 22.4028 21.006 22.1245 21.3855 22.1677C21.9754 22.2303 22.6271 22.2609 23.3751 22.2609C28.4873 22.2609 31.625 20.64 31.625 19.4783C31.625 19.0943 31.933 18.7826 32.3125 18.7826C32.692 18.7826 33 19.0943 33 19.4783C33 22.1885 28.0418 23.6522 23.3751 23.6522Z" fill="var(--fill-0, #9A74E0)"/>
<path d="M23.3751 27.8261C22.579 27.8261 21.8805 27.7941 21.2397 27.7245C20.863 27.6842 20.588 27.3419 20.6293 26.9593C20.6691 26.5767 21.006 26.2929 21.3855 26.3416C21.9754 26.4042 22.6271 26.4348 23.3751 26.4348C28.4873 26.4348 31.625 24.8139 31.625 23.6522C31.625 23.2682 31.933 22.9565 32.3125 22.9565C32.692 22.9565 33 23.2682 33 23.6522C33 26.3624 28.0418 27.8261 23.3751 27.8261Z" fill="var(--fill-0, #9A74E0)"/>
<path d="M23.3751 19.4783C22.579 19.4783 21.8805 19.4463 21.2397 19.3767C20.863 19.3363 20.588 18.9941 20.6293 18.6115C20.6691 18.2289 21.006 17.9478 21.3855 17.9937C21.9754 18.0563 22.6271 18.087 23.3751 18.087C28.4873 18.087 31.625 16.4661 31.625 15.3043C31.625 14.9203 31.933 14.6087 32.3125 14.6087C32.692 14.6087 33 14.9203 33 15.3043C33 18.0146 28.0418 19.4783 23.3751 19.4783Z" fill="var(--fill-0, #9A74E0)"/>
<path d="M23.3751 11.1304C18.7084 11.1304 13.7502 9.66678 13.7502 6.95652C13.7502 4.24626 18.7084 2.78261 23.3751 2.78261C28.0418 2.78261 33 4.24626 33 6.95652C33 9.66678 28.0418 11.1304 23.3751 11.1304ZM23.3751 4.17391C18.2629 4.17391 15.1252 5.79478 15.1252 6.95652C15.1252 8.11826 18.2629 9.73913 23.3751 9.73913C28.4873 9.73913 31.625 8.11826 31.625 6.95652C31.625 5.79478 28.4873 4.17391 23.3751 4.17391Z" fill="var(--fill-0, #9A74E0)"/>
<path d="M14.4377 11.8261C14.0582 11.8261 13.7502 11.5144 13.7502 11.1304V6.95652C13.7502 6.57252 14.0582 6.26087 14.4377 6.26087C14.8172 6.26087 15.1252 6.57252 15.1252 6.95652V11.1304C15.1252 11.5144 14.8172 11.8261 14.4377 11.8261Z" fill="var(--fill-0, #9A74E0)"/>
<path d="M32.3125 24.3478C31.933 24.3478 31.625 24.0362 31.625 23.6522V6.95652C31.625 6.57252 31.933 6.26087 32.3125 6.26087C32.692 6.26087 33 6.57252 33 6.95652V23.6522C33 24.0362 32.692 24.3478 32.3125 24.3478Z" fill="var(--fill-0, #9A74E0)"/>
<path d="M0.687837 8.34783C0.511838 8.34783 0.33584 8.27965 0.201092 8.1447C-0.0670306 7.87339 -0.0670306 7.43235 0.201092 7.16104L3.63856 3.68278C3.84893 3.46991 4.16655 3.41983 4.4333 3.552L6.74052 4.7193L11.2024 0.204522C11.4705 -0.0667827 11.9063 -0.0667827 12.1745 0.204522C12.4426 0.475826 12.4426 0.91687 12.1745 1.18817L7.36202 6.05774C7.15164 6.26783 6.83402 6.3193 6.56728 6.18713L4.26142 5.01983L1.17458 8.1447C1.03983 8.27965 0.863835 8.34783 0.687837 8.34783Z" fill="var(--fill-0, #9A74E0)"/>
<path d="M11.6877 5.56522C11.3082 5.56522 11.0002 5.25357 11.0002 4.86957V1.3913H7.56276C7.18327 1.3913 6.87527 1.07965 6.87527 0.695652C6.87527 0.311652 7.18327 0 7.56276 0H11.6877C12.0672 0 12.3752 0.311652 12.3752 0.695652V4.86957C12.3752 5.25357 12.0672 5.56522 11.6877 5.56522Z" fill="var(--fill-0, #9A74E0)"/>
</g>
</svg>
