<svg preserveAspectRatio="none" width="100%" height="100%" overflow="visible" style="display: block;" viewBox="0 0 32 32" fill="none" xmlns="http://www.w3.org/2000/svg">
<g id="Vector">
<path d="M14 28H8.66667C3.888 28 0 24.112 0 19.3333C0 14.5547 3.888 10.6667 8.66667 10.6667H14C14.368 10.6667 14.6667 10.9653 14.6667 11.3333V15.3333C14.6667 15.7013 14.368 16 14 16H8.66667C6.828 16 5.33333 17.4947 5.33333 19.3333C5.33333 21.172 6.828 22.6667 8.66667 22.6667H14C14.368 22.6667 14.6667 22.9653 14.6667 23.3333V27.3333C14.6667 27.7013 14.368 28 14 28ZM8.66667 12C4.624 12 1.33333 15.2907 1.33333 19.3333C1.33333 23.376 4.624 26.6667 8.66667 26.6667H13.3333V24H8.66667C6.09333 24 4 21.9067 4 19.3333C4 16.76 6.09333 14.6667 8.66667 14.6667H13.3333V12H8.66667Z" fill="var(--fill-0, #9A74E0)"/>
<path d="M10 16C9.632 16 9.33333 15.7013 9.33333 15.3333V11.3333C9.33333 10.9653 9.632 10.6667 10 10.6667C10.368 10.6667 10.6667 10.9653 10.6667 11.3333V15.3333C10.6667 15.7013 10.368 16 10 16Z" fill="var(--fill-0, #9A74E0)"/>
<path d="M10 28C9.632 28 9.33333 27.7013 9.33333 27.3333V23.3333C9.33333 22.9653 9.632 22.6667 10 22.6667C10.368 22.6667 10.6667 22.9653 10.6667 23.3333V27.3333C10.6667 27.7013 10.368 28 10 28Z" fill="var(--fill-0, #9A74E0)"/>
<path d="M24.6667 32H15.3333C14.172 32 13.1093 31.7693 12.1733 31.316C11.8413 31.1547 11.7027 30.756 11.864 30.4253C12.0253 30.0933 12.424 29.9533 12.7547 30.116C13.508 30.4813 14.3747 30.6667 15.3333 30.6667H24.6667C29.0947 30.6667 30.6667 26.716 30.6667 23.3333C30.6667 17.6573 27.7493 11.8053 23.708 9.33333H16.1067C15.7387 9.33333 15.44 9.03467 15.44 8.66667C15.44 8.29867 15.7387 8 16.1067 8H23.8933C24.012 8 24.1293 8.03067 24.2307 8.09067C28.7333 10.7333 32 17.1427 32 23.3333C32 27.6467 29.7333 32 24.6667 32Z" fill="var(--fill-0, #9A74E0)"/>
<path d="M24.6667 9.33333H15.3333C14.2307 9.33333 13.3333 8.436 13.3333 7.33333C13.3333 6.23067 14.2307 5.33333 15.3333 5.33333H24.6667C25.7693 5.33333 26.6667 6.23067 26.6667 7.33333C26.6667 8.436 25.7693 9.33333 24.6667 9.33333ZM15.3333 6.66667C14.9667 6.66667 14.6667 6.96667 14.6667 7.33333C14.6667 7.7 14.9667 8 15.3333 8H24.6667C25.0333 8 25.3333 7.7 25.3333 7.33333C25.3333 6.96667 25.0333 6.66667 24.6667 6.66667H15.3333Z" fill="var(--fill-0, #9A74E0)"/>
<path d="M23.3333 6.66667C23.1387 6.66667 22.944 6.58133 22.812 6.416C22.5827 6.128 22.628 5.70933 22.916 5.47867L26.6133 2.52C26.9573 2.24533 26.864 1.88267 26.8267 1.77733C26.792 1.67467 26.6387 1.33333 26.1987 1.33333H13.8C13.3613 1.33333 13.208 1.67467 13.1707 1.77867C13.1347 1.884 13.04 2.24667 13.384 2.52133L17.0813 5.48C17.3693 5.71067 17.4147 6.12933 17.1853 6.41733C16.9547 6.70667 16.536 6.74933 16.248 6.52133L12.552 3.56267C11.8787 3.024 11.6293 2.15067 11.9147 1.33733C12.1987 0.525333 12.94 0 13.8013 0H26.2C27.0613 0 27.8013 0.525333 28.0867 1.33733C28.372 2.15067 28.1213 3.024 27.448 3.56267L23.7507 6.52133C23.6267 6.61867 23.4787 6.66667 23.3333 6.66667Z" fill="var(--fill-0, #9A74E0)"/>
<path d="M20.6667 24.6667H17.3333C16.9653 24.6667 16.6667 24.368 16.6667 24C16.6667 23.632 16.9653 23.3333 17.3333 23.3333H20.6667C21.4027 23.3333 22 22.736 22 22C22 21.264 21.4027 20.6667 20.6667 20.6667H19.3333C17.8627 20.6667 16.6667 19.4707 16.6667 18C16.6667 16.5293 17.8627 15.3333 19.3333 15.3333H22.6667C23.0347 15.3333 23.3333 15.632 23.3333 16C23.3333 16.368 23.0347 16.6667 22.6667 16.6667H19.3333C18.5973 16.6667 18 17.264 18 18C18 18.736 18.5973 19.3333 19.3333 19.3333H20.6667C22.1373 19.3333 23.3333 20.5293 23.3333 22C23.3333 23.4707 22.1373 24.6667 20.6667 24.6667Z" fill="var(--fill-0, #9A74E0)"/>
<path d="M20 26.6667C19.632 26.6667 19.3333 26.368 19.3333 26V24C19.3333 23.632 19.632 23.3333 20 23.3333C20.368 23.3333 20.6667 23.632 20.6667 24V26C20.6667 26.368 20.368 26.6667 20 26.6667Z" fill="var(--fill-0, #9A74E0)"/>
<path d="M20 16.6667C19.632 16.6667 19.3333 16.368 19.3333 16V14C19.3333 13.632 19.632 13.3333 20 13.3333C20.368 13.3333 20.6667 13.632 20.6667 14V16C20.6667 16.368 20.368 16.6667 20 16.6667Z" fill="var(--fill-0, #9A74E0)"/>
</g>
</svg>
