<svg preserveAspectRatio="none" width="100%" height="100%" overflow="visible" style="display: block;" viewBox="0 0 32 32" fill="none" xmlns="http://www.w3.org/2000/svg">
<g id="Vector">
<path d="M24.7418 20.32C24.5556 20.32 24.3695 20.2487 24.2269 20.1076C23.9433 19.824 23.9433 19.3629 24.2269 19.0793L28.1978 15.1098C29.7135 13.6073 30.5455 11.6015 30.5455 9.45455C30.5455 5.04291 26.9571 1.45455 22.5455 1.45455C20.4 1.45455 18.3927 2.28655 16.8945 3.79782L12.9207 7.77309C12.6371 8.05673 12.176 8.05673 11.8924 7.77309C11.6087 7.48945 11.6087 7.02836 11.8924 6.74473L15.8633 2.77382C17.6349 0.986182 20.0087 0 22.5455 0C27.7585 0 32 4.24145 32 9.45455C32 11.9913 31.0138 14.3651 29.2247 16.1396L25.2553 20.1076C25.1142 20.2487 24.928 20.32 24.7418 20.32Z" fill="var(--fill-0, #9A74E0)"/>
<path d="M9.45455 32C4.24145 32 0 27.7585 0 22.5455C0 20.0087 0.986182 17.6349 2.77527 15.8604L6.74473 11.8924C7.02836 11.6087 7.48945 11.6087 7.77309 11.8924C8.05673 12.176 8.05673 12.6371 7.77309 12.9207L3.80218 16.8902C2.28655 18.3927 1.45455 20.3985 1.45455 22.5455C1.45455 26.9571 5.04291 30.5455 9.45455 30.5455C11.6 30.5455 13.6073 29.7135 15.1055 28.2022L19.0778 24.2284C19.3615 23.9447 19.8225 23.9447 20.1062 24.2284C20.3898 24.512 20.3898 24.9731 20.1062 25.2567L16.1353 29.2276C14.3651 31.0138 11.9913 32 9.45455 32Z" fill="var(--fill-0, #9A74E0)"/>
<path d="M10.1818 22.5455C9.99564 22.5455 9.80945 22.4742 9.66691 22.3331C9.38327 22.0495 9.38327 21.5884 9.66691 21.3047L21.3033 9.66836C21.5869 9.38473 22.048 9.38473 22.3316 9.66836C22.6153 9.952 22.6153 10.4131 22.3316 10.6967L10.6953 22.3331C10.5542 22.4742 10.368 22.5455 10.1818 22.5455Z" fill="var(--fill-0, #9A74E0)"/>
</g>
</svg>
