<svg preserveAspectRatio="none" width="100%" height="100%" overflow="visible" style="display: block;" viewBox="0 0 17 18" fill="none" xmlns="http://www.w3.org/2000/svg">
<g id="Vector">
<path d="M17 15.6148V12.7698C17 12.1905 16.6793 11.6709 16.1845 11.3903C11.4506 8.70368 5.54943 8.70368 0.815454 11.3903C0.320717 11.6709 0 12.1905 0 12.7698V16.1724C0 17.2146 0.879588 18 1.88888 18H14.5803L17 15.6148Z" fill="var(--fill-0, #3B98D4)"/>
<path d="M0 15.6145V12.7698C0 12.1905 0.320717 11.6709 0.815454 11.3903C5.54943 8.70368 11.4506 8.70368 16.1845 11.3903C16.6793 11.6709 17 12.1905 17 12.7698V16.1722C17 17.2143 16.1204 17.9997 15.1111 17.9997H2.41974L0 15.6145Z" fill="var(--fill-0, #3B98D4)"/>
<path d="M8.50001 0C5.92592 0 3.77781 1.98963 3.77781 4.51725C3.77781 7.04486 5.92592 9.0345 8.50001 9.0345C11.0741 9.0345 13.2222 7.04486 13.2222 4.51725C13.2222 1.98963 11.0741 0 8.50001 0Z" fill="var(--fill-0, #3B98D4)"/>
</g>
</svg>
