<svg preserveAspectRatio="none" width="100%" height="100%" overflow="visible" style="display: block;" viewBox="0 0 22.8 20" fill="none" xmlns="http://www.w3.org/2000/svg">
<path id="Vector" d="M22.6826 15.7686L18.9188 19.7276C18.8369 19.8136 18.7379 19.8822 18.628 19.929C18.518 19.9759 18.3993 20.0001 18.2794 20H0.436954C0.351818 20 0.268538 19.9756 0.197344 19.9298C0.126152 19.884 0.0701473 19.8188 0.0362128 19.7423C0.00227827 19.6657 -0.00810826 19.5811 0.00632943 19.4987C0.0207671 19.4164 0.0594 19.3401 0.117481 19.279L3.88415 15.32C3.96575 15.2342 4.06443 15.1658 4.17409 15.1189C4.28374 15.0721 4.40203 15.0478 4.52164 15.0476H22.3631C22.4482 15.0476 22.5314 15.072 22.6026 15.1178C22.6739 15.1636 22.7298 15.2288 22.7638 15.3054C22.7978 15.3819 22.8081 15.4666 22.7937 15.5488C22.7792 15.6312 22.7406 15.7075 22.6826 15.7686ZM18.9188 7.79622C18.8369 7.71019 18.7379 7.64164 18.628 7.59477C18.518 7.54791 18.3993 7.52373 18.2794 7.5238H0.436954C0.351818 7.5238 0.268538 7.54819 0.197344 7.59399C0.126152 7.63978 0.0701473 7.70498 0.0362128 7.78152C0.00227827 7.85813 -0.00810826 7.94273 0.00632943 8.02505C0.0207671 8.10737 0.0594 8.18369 0.117481 8.24476L3.88415 12.2038C3.96575 12.2896 4.06443 12.358 4.17409 12.4049C4.28374 12.4517 4.40203 12.476 4.52164 12.4762H22.3631C22.4482 12.4762 22.5314 12.4518 22.6026 12.406C22.6739 12.3602 22.7298 12.295 22.7638 12.2184C22.7978 12.1419 22.8081 12.0572 22.7937 11.9749C22.7792 11.8926 22.7406 11.8163 22.6826 11.7552L18.9188 7.79622ZM0.436954 4.95238H18.2794C18.3993 4.95244 18.518 4.92829 18.628 4.88143C18.7379 4.83457 18.8369 4.766 18.9188 4.68L22.6826 0.720951C22.7406 0.659902 22.7792 0.58354 22.7937 0.50125C22.8081 0.41896 22.7978 0.334326 22.7638 0.257746C22.7298 0.181166 22.6739 0.115977 22.6026 0.070187C22.5314 0.0243976 22.4482 2.81987e-06 22.3631 0H4.52164C4.40203 0.000199635 4.28374 0.024477 4.17409 0.0713292C4.06443 0.118182 3.96575 0.186611 3.88415 0.272381L0.118453 4.23142C0.0604271 4.29242 0.0218112 4.36869 0.00734078 4.45089C-0.0071296 4.5331 0.0031745 4.61765 0.0369894 4.6942C0.0708043 4.77074 0.12666 4.83594 0.197706 4.8818C0.268753 4.92767 0.351901 4.95219 0.436954 4.95238Z" fill="url(#paint0_linear_95_23)"/>
<defs>
<linearGradient id="paint0_linear_95_23" x1="1.92459" y1="20.4766" x2="20.2302" y2="-0.563161" gradientUnits="userSpaceOnUse">
<stop offset="0.08" stop-color="#9945FF"/>
<stop offset="0.3" stop-color="#8752F3"/>
<stop offset="0.5" stop-color="#5497D5"/>
<stop offset="0.6" stop-color="#43B4CA"/>
<stop offset="0.72" stop-color="#28E0B9"/>
<stop offset="0.97" stop-color="#19FB9B"/>
</linearGradient>
</defs>
</svg>
