<svg preserveAspectRatio="none" width="100%" height="100%" overflow="visible" style="display: block;" viewBox="0 0 163 24" fill="none" xmlns="http://www.w3.org/2000/svg">
<g id="Vector">
<path d="M39.6072 3.86133L55.8674 20.8114L54.1572 22.4706L51.5893 19.8026L49.0517 22.2621C47.8673 23.4099 46.3094 24.0269 44.6657 23.9991H44.6601C43.0164 23.9713 41.4834 23.3015 40.3433 22.1148C39.2004 20.9254 38.5888 19.3635 38.6193 17.7098C38.6497 16.059 39.3194 14.5166 40.501 13.3688L42.2001 11.7319L43.8521 13.4466L42.1503 15.0863C41.4225 15.7923 41.0102 16.74 40.9936 17.7544C40.9742 18.7687 41.3506 19.7275 42.0507 20.4584C42.7508 21.1866 43.6916 21.5979 44.6989 21.6146H44.7016C45.7117 21.6313 46.6691 21.2505 47.3969 20.5446L49.9317 18.0823L39.5989 7.32416V3.86411L39.6072 3.86133ZM9.70462 4.28376V20.3973H8.14116V18.6854C7.49086 19.9277 6.19857 20.5808 4.55761 20.5808C1.99516 20.5808 0 18.4853 0 15.6616C0 12.838 1.99516 10.7648 4.53547 10.7648C6.32587 10.7648 7.4604 11.6541 8.14116 12.9047V4.28376H9.70462ZM8.20755 15.6589C8.20755 13.6329 6.87103 12.1738 4.87307 12.1738C2.87514 12.1738 1.62989 13.63 1.62989 15.6589C1.62989 17.6876 2.90005 19.1884 4.87307 19.1884C6.84608 19.1884 8.20755 17.7071 8.20755 15.6589ZM19.9544 16.1591C19.9544 18.0044 18.7977 19.1412 17.0295 19.1412C15.4881 19.1412 14.716 18.2296 14.716 16.5899V10.9649H13.1277V16.7483C13.1277 19.1634 14.5556 20.5974 16.642 20.5974C18.1253 20.5974 19.3262 20.0527 19.9516 18.7993V20.3945H21.5401V10.9676H19.9516V16.1591H19.9544ZM30.1903 10.762C28.7071 10.762 27.484 11.3067 26.8558 12.5824V10.9649H25.2675V20.3918H26.8558V15.2003C26.8558 13.3327 28.0347 12.2155 29.7808 12.2155C31.3443 12.2155 32.1163 13.1715 32.1163 14.8334V20.389H33.7047V14.65C33.7047 12.1905 32.2768 10.7564 30.1903 10.7564V10.762Z" fill="var(--fill-0, white)"/>
<path d="M162.137 18.6659C161.841 18.9382 161.503 19.2134 160.867 19.2134C160.186 19.2134 159.754 18.8271 159.754 17.5737V12.3128H162.386V10.9704H159.754V4.28374H158.191V10.9676H156.741V12.3099H158.191V17.5487C158.191 19.7803 159.279 20.6002 160.709 20.6002C161.866 20.6002 162.591 20.0999 163 19.6664L162.14 18.6631L162.137 18.6659Z" fill="var(--fill-0, white)"/>
<path d="M76.0126 12.4822V10.9676H74.4247V20.3945H76.0126V15.4309C76.0126 13.2215 77.1003 12.2655 78.4394 12.2655C79.0293 12.2655 79.4387 12.4239 79.7321 12.6296L80.3433 11.24C79.912 10.9454 79.4136 10.7842 78.7109 10.7842C77.6263 10.7842 76.6107 11.1316 76.0126 12.4822Z" fill="var(--fill-0, white)"/>
<path d="M66.5431 10.7619C64.7971 10.7619 63.6185 11.4206 62.9377 12.674V4.28374H61.3741V20.3973H62.9377V18.6825C63.5878 19.9248 64.8805 20.5779 66.5212 20.5779C69.0834 20.5779 71.0788 18.4824 71.0788 15.6589C71.0788 12.8352 69.1059 10.7619 66.5431 10.7619ZM66.2027 19.1884C64.2078 19.1884 62.8688 17.7071 62.8688 15.6589C62.8688 13.6106 64.2047 12.1738 66.2027 12.1738C68.2007 12.1738 69.4463 13.6328 69.4463 15.6589C69.4463 17.6848 68.1762 19.1884 66.2027 19.1884Z" fill="var(--fill-0, white)"/>
<path d="M51.3817 6.56824V9.03893C51.9075 9.23348 52.3447 9.54476 52.746 9.96163C53.4461 10.6897 53.8224 11.6513 53.803 12.6657C53.7837 13.6801 53.3742 14.6278 52.6464 15.3337L52.4249 15.5394L54.0881 17.2457L54.2983 17.0513C55.4827 15.9035 56.1496 14.361 56.1801 12.7102C56.2105 11.0566 55.5989 9.49471 54.4561 8.30524C53.6093 7.42421 52.5467 6.82947 51.3817 6.56824Z" fill="var(--fill-0, white)"/>
<path d="M41.1568 1.47127L39.978 2.60516L41.63 4.32269L42.8088 3.18879C43.9379 2.0938 45.7421 2.12159 46.8296 3.25271C47.9171 4.38383 47.8839 6.19584 46.7549 7.29079L45.5844 8.41636L47.2364 10.1339L48.4069 9.00833C50.4796 6.99903 50.5377 3.67514 48.5398 1.59633C46.5418 -0.482478 43.2322 -0.538061 41.1596 1.47127H41.1568Z" fill="var(--fill-0, white)"/>
<path d="M126.769 12.4822V10.9676H125.181V20.3945H126.769V15.4309C126.769 13.2215 127.856 12.2655 129.196 12.2655C129.785 12.2655 130.195 12.4239 130.488 12.6296L131.1 11.24C130.668 10.9454 130.17 10.7842 129.467 10.7842C128.382 10.7842 127.364 11.1316 126.769 12.4795V12.4822Z" fill="var(--fill-0, white)"/>
<path d="M86.1686 10.7619C84.3782 10.7619 83.1519 11.4678 82.3357 12.5851L83.3099 13.4744C83.8992 12.6767 84.738 12.1071 86.0552 12.1071C87.4388 12.1071 88.255 12.8129 88.255 14.636V14.864H85.3298C83.3569 14.864 81.7683 15.7755 81.7683 17.7098C81.7683 19.6441 83.2184 20.5779 85.2163 20.5779C86.6639 20.5779 87.6187 20.1916 88.255 19.3023V20.3945H89.7301V14.6111C89.7301 11.9931 88.255 10.7619 86.1686 10.7619ZM88.255 17.2512C88.255 18.4796 87.0319 19.2773 85.5793 19.2773C84.1261 19.2773 83.3124 18.7075 83.3124 17.6376C83.3124 16.4981 84.2428 16.0674 85.4433 16.0674H88.255V17.2512Z" fill="var(--fill-0, white)"/>
<path d="M137.226 10.7647C134.481 10.7647 132.373 12.9269 132.373 15.6838C132.373 18.4407 134.368 20.5806 137.451 20.5806C139.288 20.5806 140.533 19.9192 141.397 18.941L140.422 17.9849C139.811 18.6686 138.859 19.2384 137.453 19.2384C135.389 19.2384 134.166 18.0071 133.961 16.2091H141.942C142.055 13.0881 140.24 10.7675 137.226 10.7675V10.7647ZM133.983 15.0002C134.232 13.2687 135.433 12.107 137.226 12.107C139.199 12.107 140.22 13.3827 140.356 15.0002H133.983Z" fill="var(--fill-0, white)"/>
<path d="M110.016 14.8862C108.361 14.4082 107.794 14.158 107.794 13.2687C107.794 12.5406 108.406 12.0625 109.427 12.0625C110.335 12.0625 110.991 12.4711 111.466 13.1325L112.554 12.2905C111.895 11.3566 110.852 10.7647 109.424 10.7647C107.7 10.7647 106.341 11.6985 106.341 13.3382C106.341 15.1141 107.703 15.706 109.175 16.1396C110.808 16.6176 111.624 16.8455 111.624 17.871C111.624 18.7353 110.899 19.2828 109.629 19.2828C108.267 19.2828 107.451 18.5991 106.909 17.6876L105.686 18.3935C106.297 19.5774 107.637 20.5806 109.698 20.5806C112.056 20.5806 113.121 19.3745 113.121 17.7793C113.121 15.9562 111.602 15.3197 110.013 14.8862H110.016Z" fill="var(--fill-0, white)"/>
<path d="M119.76 19.2134C119.079 19.2134 118.647 18.8271 118.647 17.5737V12.3128H121.279V10.9704H118.647V4.28374H117.084V10.9676H115.634V12.3099H117.084V17.5487C117.084 19.7803 118.171 20.6002 119.602 20.6002C120.759 20.6002 121.484 20.0999 121.893 19.6664L121.033 18.6631C120.737 18.9355 120.399 19.2106 119.762 19.2106L119.76 19.2134Z" fill="var(--fill-0, white)"/>
<path d="M149.493 10.7647C146.749 10.7647 144.64 12.9269 144.64 15.6838C144.64 18.4407 146.635 20.5806 149.718 20.5806C151.555 20.5806 152.8 19.9192 153.663 18.941L152.69 17.9849C152.078 18.6686 151.126 19.2384 149.72 19.2384C147.656 19.2384 146.433 18.0071 146.228 16.2091H154.209C154.322 13.0881 152.507 10.7675 149.493 10.7675V10.7647ZM146.25 15.0002C146.5 13.2687 147.7 12.107 149.493 12.107C151.467 12.107 152.487 13.3827 152.623 15.0002H146.25Z" fill="var(--fill-0, white)"/>
<path d="M101.017 12.674C100.337 11.4206 99.2022 10.7619 97.4117 10.7619C94.8714 10.7619 92.876 12.8574 92.876 15.6589C92.876 18.4602 94.8714 20.5779 97.4336 20.5779C99.0749 20.5779 100.367 19.9248 101.017 18.6825V20.3945H102.581V4.28374H101.017V12.674ZM97.7521 19.1884C95.7792 19.1884 94.5091 17.7071 94.5091 15.6589C94.5091 13.6106 95.7792 12.1738 97.7521 12.1738C99.725 12.1738 101.087 13.63 101.087 15.6589C101.087 17.6876 99.7501 19.1884 97.7521 19.1884Z" fill="var(--fill-0, white)"/>
</g>
</svg>
