<svg preserveAspectRatio="none" width="100%" height="100%" overflow="visible" style="display: block;" viewBox="0 0 71 20" fill="none" xmlns="http://www.w3.org/2000/svg">
<g id="Frame 24">
<path id="telegram" fill-rule="evenodd" clip-rule="evenodd" d="M9.43216 18.7744C9.48841 17.9135 9.54109 17.0815 9.59823 16.2487C9.65894 15.3529 9.73037 14.4572 9.78037 13.5606C9.79466 13.3065 9.88127 13.1246 10.0839 12.9496C13.4822 10.0465 16.8733 7.13576 20.2661 4.22673C20.3224 4.17828 20.392 4.13835 20.4322 4.07971C20.5081 3.96498 20.5679 3.84004 20.634 3.72021C20.475 3.68961 20.3054 3.60974 20.1608 3.64033C19.9554 3.68452 19.7599 3.79415 19.5786 3.90293C15.3527 6.43973 11.1286 8.97993 6.90894 11.5261C6.6884 11.6587 6.50447 11.6892 6.25 11.6102C4.47768 11.0629 2.70089 10.5351 0.927668 9.99379C0.713381 9.92835 0.495523 9.84508 0.310701 9.72695C-0.0526929 9.49494 -0.113407 9.13629 0.214273 8.86689C0.525881 8.61023 0.898203 8.391 1.28213 8.24482C2.99017 7.59299 4.71161 6.97175 6.42947 6.34201C12.0456 4.27858 17.6616 2.21685 23.2777 0.154267C23.3679 0.121124 23.4599 0.0888137 23.5518 0.0607686C24.2893 -0.156791 24.9679 0.225649 24.9974 0.95482C25.0179 1.47068 24.9143 2.00012 24.801 2.51003C23.5983 7.93717 22.3849 13.3626 21.1697 18.7872C20.8884 20.0432 19.992 20.3517 18.8956 19.5809C17.0554 18.2875 15.217 16.9932 13.3581 15.6852C13.284 15.7456 13.2098 15.7999 13.1429 15.8611C12.2554 16.6804 11.3679 17.5005 10.4822 18.3215C10.2027 18.5798 9.89734 18.7804 9.43216 18.7744Z" fill="var(--fill-0, #32AE70)"/>
<path id="Vector" d="M66.3263 2.8691e-09H69.6998L62.3297 8.4718L71 20H64.2112L58.894 13.0082L52.8099 20H49.4344L57.3174 10.9385L49 2.8691e-09H55.9611L60.7674 6.39077L66.3263 2.8691e-09ZM65.1423 17.9692H67.0116L54.9454 1.9241H52.9395L65.1423 17.9692Z" fill="var(--fill-0, #32AE70)"/>
</g>
</svg>
