<svg preserveAspectRatio="none" width="100%" height="100%" overflow="visible" style="display: block;" viewBox="0 0 186 40" fill="none" xmlns="http://www.w3.org/2000/svg">
<g id="Group 4">
<g id="Vector">
<path d="M8.30487 3.066H39.5682L43 0H11.7366L8.30487 3.066Z" fill="url(#paint0_linear_95_41)"/>
<path d="M3.5004 8.33727H35.0321L38.4639 5.27126H6.93285L3.5004 8.33727Z" fill="url(#paint1_linear_95_41)"/>
<path d="M34.7494 10.5425H2.67678V13.6085H34.7494V10.5425Z" fill="url(#paint2_linear_95_41)"/>
<path d="M42.9856 26.3563H11.2761V29.4575H42.9856V26.3563Z" fill="url(#paint3_linear_95_41)"/>
<path d="M4.52993 34.7287H38.584L42.0158 31.6627H7.96238L4.52993 34.7287Z" fill="url(#paint4_linear_95_41)"/>
<path d="M0 40H33.7795L37.2113 36.934H3.43176L0 40Z" fill="url(#paint5_linear_95_41)"/>
<path d="M38.4639 18.8798H6.93285L3.5004 15.8138H35.0321L38.4639 18.8798Z" fill="url(#paint6_linear_95_41)"/>
<path d="M42.9451 24.1511H11.3248L7.89306 21.0851H39.5133L42.9451 24.1511Z" fill="url(#paint7_linear_95_41)"/>
</g>
<path id="Vector_2" d="M71.8831 14.97L68.0198 15.7493C67.5866 13.2343 65.3841 11.5695 62.4957 11.5695C59.6073 11.5695 57.7659 13.0926 57.7659 15.1826C57.7659 16.8474 58.7408 17.733 60.8349 18.158L66.0701 19.2561C69.6807 20.0354 72.2802 22.0191 72.2802 25.7384C72.2802 30.2016 68.5614 33 63.0012 33C57.8742 33 53.6138 30.5559 53 25.951L57.116 25.1008C57.6937 28.1471 60.1128 29.6349 63.3622 29.6349C66.6117 29.6349 68.4531 28.1117 68.4531 25.951C68.4531 24.1444 67.4782 23.2943 65.0592 22.7984L59.7878 21.7357C56.7911 21.0627 53.686 19.5041 53.686 15.2888C53.686 11.0736 57.1882 8.2752 62.5679 8.2752C67.4782 8.2752 71.0166 10.8965 71.8831 14.97ZM93.9434 23.7193C93.9434 29.1744 89.6469 32.9292 84.3755 32.9292C79.1042 32.9292 74.7354 29.1744 74.7354 23.7193C74.7354 18.2643 79.068 14.545 84.3755 14.545C89.683 14.545 93.9434 18.2643 93.9434 23.7193ZM90.2968 23.7193C90.2968 20.0708 87.4445 17.6975 84.3755 17.6975C81.3066 17.6975 78.4182 20.0708 78.4182 23.7193C78.4182 27.3678 81.2344 29.7411 84.3755 29.7411C87.5167 29.7411 90.2968 27.3678 90.2968 23.7193ZM96.6875 32.5041V7H100.442V32.5041H96.6875ZM121.131 21.8774V32.5041H117.34V22.6213C117.34 19.752 115.643 17.8392 113.079 17.8392C109.866 17.8392 107.736 19.9646 107.736 24.3924V32.5041H103.981V14.9346H107.736V17.0954C109.18 15.3951 111.274 14.4387 113.946 14.4387C118.242 14.4387 121.131 17.485 121.131 21.8774ZM143.287 23.7193C143.287 29.1744 138.991 32.9292 133.719 32.9292C128.448 32.9292 124.079 29.1744 124.079 23.7193C124.079 18.2643 128.412 14.545 133.719 14.545C139.027 14.545 143.287 18.2643 143.287 23.7193ZM139.641 23.7193C139.641 20.0708 136.788 17.6975 133.719 17.6975C130.651 17.6975 127.762 20.0708 127.762 23.7193C127.762 27.3678 130.578 29.7411 133.719 29.7411C136.861 29.7411 139.641 27.3678 139.641 23.7193ZM165.107 32.5041H161.316V30.5204C159.727 32.079 157.525 33 154.817 33C150.159 33 145.935 29.2807 145.935 23.7193C145.935 18.158 150.159 14.4387 154.817 14.4387C157.525 14.4387 159.727 15.3597 161.316 16.9537V7H165.107V32.5041ZM161.304 23.7193C161.304 20.0354 158.416 17.6975 155.419 17.6975C152.169 17.6975 149.606 20.0354 149.606 23.7193C149.606 27.4033 152.169 29.7411 155.419 29.7411C158.416 29.7411 161.304 27.4387 161.304 23.7193ZM186 24.6049H171.486C171.847 27.8638 174.266 29.812 176.901 29.812C178.887 29.812 180.909 29.2452 182.173 26.7657L185.531 27.4741C184.05 31.158 180.873 33 176.901 33C172.027 33 167.767 29.3161 167.767 23.7548C167.767 18.1935 171.991 14.4387 177.046 14.4387C182.101 14.4387 185.819 18.0518 186 23.3297V24.6049ZM171.594 21.9837H182.137C181.559 19.1144 179.501 17.6975 177.046 17.6975C174.591 17.6975 172.172 19.1499 171.594 21.9837Z" fill="var(--fill-0, white)"/>
</g>
<defs>
<linearGradient id="paint0_linear_95_41" x1="0" y1="20" x2="43" y2="20" gradientUnits="userSpaceOnUse">
<stop stop-color="#19FB9B"/>
<stop offset="1" stop-color="#8752F3"/>
</linearGradient>
<linearGradient id="paint1_linear_95_41" x1="0" y1="20" x2="43" y2="20" gradientUnits="userSpaceOnUse">
<stop stop-color="#19FB9B"/>
<stop offset="1" stop-color="#8752F3"/>
</linearGradient>
<linearGradient id="paint2_linear_95_41" x1="7.89306" y1="22.6181" x2="42.9451" y2="22.6181" gradientUnits="userSpaceOnUse">
<stop stop-color="#3B98D4"/>
<stop offset="1" stop-color="#8752F3"/>
</linearGradient>
<linearGradient id="paint3_linear_95_41" x1="0" y1="20" x2="43" y2="20" gradientUnits="userSpaceOnUse">
<stop stop-color="#E074C7"/>
<stop offset="1" stop-color="#8752F3"/>
</linearGradient>
<linearGradient id="paint4_linear_95_41" x1="0" y1="20" x2="43" y2="20" gradientUnits="userSpaceOnUse">
<stop stop-color="#E074C7"/>
<stop offset="1" stop-color="#8752F3"/>
</linearGradient>
<linearGradient id="paint5_linear_95_41" x1="0" y1="20" x2="43" y2="20" gradientUnits="userSpaceOnUse">
<stop stop-color="#E074C7"/>
<stop offset="1" stop-color="#8752F3"/>
</linearGradient>
<linearGradient id="paint6_linear_95_41" x1="7.89306" y1="22.6181" x2="42.9451" y2="22.6181" gradientUnits="userSpaceOnUse">
<stop stop-color="#3B98D4"/>
<stop offset="1" stop-color="#8752F3"/>
</linearGradient>
<linearGradient id="paint7_linear_95_41" x1="7.89306" y1="22.6181" x2="42.9451" y2="22.6181" gradientUnits="userSpaceOnUse">
<stop stop-color="#3B98D4"/>
<stop offset="1" stop-color="#8752F3"/>
</linearGradient>
</defs>
</svg>
