<svg preserveAspectRatio="none" width="100%" height="100%" overflow="visible" style="display: block;" viewBox="0 0 30 32" fill="none" xmlns="http://www.w3.org/2000/svg">
<path id="Vector" d="M14.8863 6.66667C16.7048 6.66667 18.1854 5.17067 18.1854 3.33333C18.1854 1.496 16.7061 0 14.8863 0C13.0678 0 11.5872 1.496 11.5872 3.33333C11.5872 5.17067 13.0678 6.66667 14.8863 6.66667ZM14.8863 1.33333C15.9777 1.33333 16.8658 2.23067 16.8658 3.33333C16.8658 4.436 15.9777 5.33333 14.8863 5.33333C13.7949 5.33333 12.9068 4.436 12.9068 3.33333C12.9068 2.23067 13.7963 1.33333 14.8863 1.33333ZM24.2373 8C26.0558 8 27.5365 6.504 27.5365 4.66667C27.5365 2.82933 26.0571 1.33333 24.2373 1.33333C22.4189 1.33333 20.9382 2.82933 20.9382 4.66667C20.9382 6.504 22.4189 8 24.2373 8ZM24.2373 2.66667C25.3287 2.66667 26.2168 3.564 26.2168 4.66667C26.2168 5.76933 25.33 6.66667 24.2373 6.66667C23.146 6.66667 22.2579 5.76933 22.2579 4.66667C22.2579 3.564 23.1473 2.66667 24.2373 2.66667ZM20.8102 18.9827L19.9353 11.2387C19.7281 9.392 18.2804 8 16.5702 8H13.2011C11.4935 8 10.0471 9.392 9.83864 11.2387L8.96371 18.9827C8.89113 19.6307 9.08907 20.2747 9.50608 20.7467C9.86635 21.1533 10.3427 21.3907 10.8614 21.42L11.5898 31.3827C11.6149 31.7307 11.9026 32 12.247 32H17.5256C17.8714 32 18.159 31.7307 18.1828 31.3827L18.9112 21.42C19.4285 21.3907 19.9063 21.1547 20.2665 20.7467C20.6862 20.2733 20.8828 19.6307 20.8102 18.9827ZM19.2847 19.8587C19.2082 19.944 19.0445 20.0893 18.8017 20.0893H18.2989C17.9532 20.0893 17.6655 20.3587 17.6404 20.7067L16.9133 30.6667H12.8606L12.1348 20.7067C12.1084 20.3587 11.8221 20.0893 11.4763 20.0893H10.9749C10.7334 20.0893 10.5684 19.944 10.4919 19.8587C10.3243 19.668 10.2451 19.404 10.2754 19.1333L11.1504 11.3893C11.2823 10.2173 12.1652 9.33333 13.2037 9.33333H16.5728C17.6101 9.33333 18.4929 10.2173 18.6262 11.3893L19.5011 19.1333C19.5315 19.404 19.4523 19.668 19.2847 19.8587ZM29.9844 19.0867L29.1385 12.2547C28.934 10.5893 27.5259 9.33467 25.8658 9.33467H22.6076C22.2407 9.33467 21.8712 9.4 21.5083 9.53067C21.1652 9.65333 20.9857 10.0347 21.1071 10.3813C21.2299 10.728 21.606 10.9107 21.9491 10.7867C22.1695 10.708 22.3912 10.668 22.6076 10.668H25.8658C26.8621 10.668 27.7054 11.4213 27.8294 12.42L28.6753 19.252C28.6991 19.444 28.6423 19.6307 28.5157 19.776C28.389 19.9213 28.2135 20.0013 28.0208 20.0013H27.5365C27.1894 20.0013 26.903 20.2707 26.878 20.62L26.2617 29.3347H22.2117L21.7366 22.6187C21.7115 22.252 21.3922 21.964 21.0319 22.0013C20.669 22.0267 20.3945 22.3467 20.4209 22.7133L20.9395 30.048C20.9659 30.396 21.2536 30.6667 21.598 30.6667H26.8766C27.2224 30.6667 27.5101 30.396 27.5338 30.0493L28.1501 21.3307C28.6701 21.296 29.157 21.056 29.5041 20.6587C29.8802 20.228 30.0557 19.656 29.9844 19.0867ZM8.95843 22.1533C8.59025 22.1187 8.28013 22.404 8.25373 22.7707L7.78922 29.3333H3.73789L3.12293 20.6187C3.09786 20.2707 2.81018 20 2.46311 20H1.97879C1.78613 20 1.61061 19.92 1.48393 19.7747C1.35724 19.6293 1.30049 19.444 1.32425 19.2507L2.17014 12.4187C2.29287 11.42 3.13613 10.6667 4.13378 10.6667H7.392C7.5398 10.6667 7.69684 10.6893 7.88951 10.7413C8.24186 10.8293 8.60344 10.6213 8.69582 10.2653C8.78819 9.90933 8.57705 9.544 8.2247 9.45067C7.91986 9.37067 7.65593 9.33333 7.39068 9.33333H4.13378C2.47366 9.33333 1.06692 10.588 0.861051 12.2533L0.0151545 19.0853C-0.054787 19.6547 0.119407 20.2267 0.495507 20.6573C0.842576 21.0547 1.32953 21.2947 1.84947 21.3293L2.46575 30.048C2.49082 30.396 2.7785 30.6667 3.12293 30.6667H8.40154C8.74728 30.6667 9.03497 30.396 9.06004 30.048L9.56811 22.8653C9.5945 22.4987 9.32001 22.18 8.95843 22.1533ZM5.76223 8C7.58071 8 9.06136 6.504 9.06136 4.66667C9.06136 2.82933 7.58203 1.33333 5.76223 1.33333C3.94376 1.33333 2.46311 2.82933 2.46311 4.66667C2.46311 6.504 3.94376 8 5.76223 8ZM5.76223 2.66667C6.85359 2.66667 7.74171 3.564 7.74171 4.66667C7.74171 5.76933 6.85491 6.66667 5.76223 6.66667C4.6722 6.66667 3.78276 5.76933 3.78276 4.66667C3.78276 3.564 4.6722 2.66667 5.76223 2.66667Z" fill="var(--fill-0, #9A74E0)"/>
</svg>
