<svg preserveAspectRatio="none" width="100%" height="100%" overflow="visible" style="display: block;" viewBox="0 0 68.8 10.3762" fill="none" xmlns="http://www.w3.org/2000/svg">
<g id="Vector">
<path d="M9.95028 2.07551V0H2.06408C1.51665 0 0.991644 0.217078 0.604556 0.603478C0.217465 0.989879 0 1.51395 0 2.0604V4.16614C0 4.71259 0.217465 5.23667 0.604556 5.62307C0.991644 6.00949 1.51665 6.22657 2.06408 6.22657H8.3155V8.30068H0.148614V10.3762H8.33066C8.87805 10.3762 9.40308 10.1591 9.79016 9.77271C10.1772 9.38632 10.3947 8.86223 10.3947 8.31582V6.21143C10.3947 5.66498 10.1772 5.14091 9.79016 4.75451C9.40308 4.3681 8.87805 4.15103 8.33066 4.15103H2.07922V2.07551H9.95028Z" fill="var(--fill-0, black)"/>
<path d="M12.0983 2.0604V8.31582C12.0983 8.86223 12.3158 9.38632 12.7029 9.77271C13.0899 10.1591 13.615 10.3762 14.1624 10.3762H20.4289C20.9764 10.3762 21.5014 10.1591 21.8885 9.77271C22.2755 9.38632 22.493 8.86223 22.493 8.31582V2.0604C22.493 1.51395 22.2755 0.989879 21.8885 0.603478C21.5014 0.217078 20.9764 0 20.4289 0H14.1624C13.615 0 13.0899 0.217078 12.7029 0.603478C12.3158 0.989879 12.0983 1.51395 12.0983 2.0604ZM20.4138 8.30068H14.1733V2.07551H20.4096L20.4138 8.30068Z" fill="var(--fill-0, black)"/>
<path d="M34.2115 2.0604V10.3762H36.2907V6.96689H42.3812V10.3762H44.459V2.0604C44.459 1.51395 44.2415 0.989879 43.8544 0.603478C43.4674 0.217078 42.9423 0 42.3949 0H36.2756C35.7281 0 35.2032 0.217078 34.8161 0.603478C34.4289 0.989879 34.2115 1.51395 34.2115 2.0604ZM42.3812 4.8914H36.2921V2.07551H42.3825L42.3812 4.8914Z" fill="var(--fill-0, black)"/>
<path d="M58.5567 2.0604V10.3762H60.6318V6.96689H66.7208V10.3762H68.8V2.0604C68.8 1.51395 68.5825 0.989879 68.1958 0.603478C67.8084 0.217078 67.2834 0 66.7359 0H60.621C60.0733 0 59.5484 0.217078 59.1612 0.603478C58.7741 0.989879 58.5567 1.51395 58.5567 2.0604ZM66.7238 4.8914H60.6318V2.07551H66.7208L66.7238 4.8914Z" fill="var(--fill-0, black)"/>
<path d="M54.6294 0V8.30068H53.8038L50.815 0.863998C50.713 0.609105 50.5368 0.390573 50.3092 0.236573C50.0816 0.0825736 49.813 0.000173712 49.538 0H47.6872C47.3223 0 46.9722 0.144719 46.7142 0.402319C46.4561 0.659922 46.3112 1.0093 46.3112 1.3736V10.3762H48.3849V2.07551H49.2174L52.1979 9.51359C52.3002 9.76842 52.4767 9.98683 52.7046 10.1406C52.9324 10.2943 53.2013 10.3764 53.4763 10.3762H55.3271C55.692 10.3762 56.0421 10.2315 56.3001 9.97386C56.5581 9.71625 56.7032 9.3669 56.7032 9.00258V0H54.6294Z" fill="var(--fill-0, black)"/>
<path d="M26.4203 8.30068V0H24.3438V8.31582C24.3438 8.86223 24.5613 9.38632 24.9484 9.77271C25.3354 10.1591 25.8605 10.3762 26.4079 10.3762H32.6593V8.30068H26.4203Z" fill="var(--fill-0, black)"/>
</g>
</svg>
