<svg preserveAspectRatio="none" width="100%" height="100%" overflow="visible" style="display: block;" viewBox="0 0 160 24" fill="none" xmlns="http://www.w3.org/2000/svg">
<g id="Vector">
<path fill-rule="evenodd" clip-rule="evenodd" d="M156.939 8.55699V9.50738H156.339V7.14581C156.576 7.10261 156.907 7.07381 157.333 7.07381C157.822 7.07381 158.043 7.14581 158.233 7.24661C158.375 7.34741 158.485 7.53461 158.485 7.765C158.485 8.0242 158.264 8.2258 157.949 8.3122V8.341C158.201 8.42739 158.343 8.60019 158.422 8.91699C158.501 9.27698 158.548 9.42098 158.611 9.50738H157.964C157.886 9.42098 157.838 9.20498 157.759 8.93139C157.712 8.67219 157.554 8.55699 157.223 8.55699H156.939ZM156.955 7.49141V8.1682H157.239C157.57 8.1682 157.838 8.0674 157.838 7.8226C157.838 7.60661 157.665 7.46261 157.286 7.46261C157.128 7.46261 157.018 7.47701 156.955 7.49141ZM157.349 5.90743C158.848 5.90743 160 6.95862 160 8.269C160 9.60818 158.848 10.6594 157.349 10.6594C155.866 10.6594 154.682 9.60818 154.682 8.269C154.682 6.95862 155.866 5.90743 157.349 5.90743ZM157.349 6.38262C156.197 6.38262 155.345 7.23221 155.345 8.269C155.345 9.32018 156.197 10.1554 157.365 10.1554C158.501 10.1554 159.337 9.32018 159.337 8.2834C159.337 7.23221 158.501 6.38262 157.349 6.38262Z" fill="var(--fill-0, white)"/>
<path fill-rule="evenodd" clip-rule="evenodd" d="M151.054 13.0583C151.054 12.1832 150.646 10.7174 148.859 10.7174C147.225 10.7174 146.561 12.0888 146.459 13.0583H151.054ZM146.485 15.5176C146.612 17.0069 148.195 17.7164 150.008 17.7164C151.335 17.7164 152.407 17.551 153.454 17.2434L153.965 19.679C152.688 20.1518 151.131 20.3883 149.446 20.3883C145.208 20.3883 142.783 18.1184 142.783 14.5008C142.783 11.5684 144.749 8.32908 149.088 8.32908C153.122 8.32908 154.654 11.2375 154.654 14.0985C154.654 14.7136 154.578 15.2571 154.526 15.5176H146.485Z" fill="var(--fill-0, white)"/>
<path fill-rule="evenodd" clip-rule="evenodd" d="M139.413 5.27959V8.58997H142.195V11.2385H139.413V15.4236C139.413 16.8187 139.77 17.4572 140.945 17.4572C141.43 17.4572 141.813 17.4098 142.093 17.3625L142.119 20.0817C141.608 20.2709 140.689 20.3893 139.591 20.3893C138.34 20.3893 137.294 19.987 136.681 19.3961C135.966 18.7103 135.609 17.599 135.609 15.9673V11.2385H133.949V8.58997H135.609V6.08358L139.413 5.27959Z" fill="var(--fill-0, white)"/>
<path fill-rule="evenodd" clip-rule="evenodd" d="M128.435 20.1526H132.315V8.58984H128.435V20.1526ZM132.443 5.3742C132.443 6.36734 131.626 7.17102 130.35 7.17102C129.124 7.17102 128.307 6.36734 128.333 5.3742C128.307 4.33369 129.124 3.55338 130.376 3.55338C131.626 3.55338 132.418 4.33369 132.443 5.3742Z" fill="var(--fill-0, white)"/>
<path fill-rule="evenodd" clip-rule="evenodd" d="M115.543 16.4398C116.589 16.9363 118.197 17.433 119.856 17.433C121.644 17.433 122.588 16.7474 122.588 15.7069C122.588 14.7138 121.772 14.146 119.703 13.4604C116.844 12.5383 114.981 11.0721 114.981 8.75521C114.981 6.03599 117.431 3.95496 121.491 3.95496C123.431 3.95496 124.86 4.33327 125.882 4.75895L125.014 7.66733C124.325 7.36007 123.099 6.91071 121.414 6.91071C119.729 6.91071 118.912 7.61996 118.912 8.44764C118.912 9.46447 119.882 9.91351 122.103 10.6941C125.141 11.7343 126.571 13.2005 126.571 15.4467C126.571 18.1186 124.35 20.3887 119.627 20.3887C117.662 20.3887 115.721 19.9157 114.751 19.4193L115.543 16.4398Z" fill="var(--fill-0, white)"/>
<path fill-rule="evenodd" clip-rule="evenodd" d="M108.444 13.4844C108.444 13.2952 108.419 13.035 108.393 12.8462C108.164 11.8764 107.321 11.0724 106.121 11.0724C104.36 11.0724 103.44 12.5386 103.44 14.3594C103.44 16.322 104.487 17.5514 106.096 17.5514C107.219 17.5514 108.112 16.8421 108.342 15.8253C108.419 15.5651 108.444 15.3052 108.444 14.9976V13.4844ZM112.325 3.36408V16.7003C112.325 18.0007 112.376 19.3722 112.427 20.1525H108.98L108.802 18.4498H108.751C107.959 19.7505 106.453 20.4127 104.844 20.4127C101.883 20.4127 99.5091 18.0718 99.5091 14.4775C99.4839 10.576 102.113 8.32949 105.1 8.32949C106.632 8.32949 107.832 8.82622 108.393 9.63021H108.444V3.36408H112.325Z" fill="var(--fill-0, white)"/>
<path fill-rule="evenodd" clip-rule="evenodd" d="M94.9643 13.0583C94.9643 12.1832 94.5559 10.7174 92.769 10.7174C91.1352 10.7174 90.471 12.0888 90.3688 13.0583H94.9643ZM90.3947 15.5176C90.5222 17.0069 92.1048 17.7164 93.9176 17.7164C95.2452 17.7164 96.3175 17.551 97.3642 17.2434L97.8746 19.679C96.5981 20.1518 95.041 20.3883 93.3557 20.3883C89.1182 20.3883 86.6928 18.1184 86.6928 14.5008C86.6928 11.5684 88.6586 8.32908 92.9984 8.32908C97.0321 8.32908 98.5639 11.2375 98.5639 14.0985C98.5639 14.7136 98.4872 15.2571 98.4364 15.5176H90.3947Z" fill="var(--fill-0, white)"/>
<path fill-rule="evenodd" clip-rule="evenodd" d="M83.3737 5.27959V8.58997H86.1564V11.2385H83.3737V15.4236C83.3737 16.8187 83.7313 17.4572 84.9055 17.4572C85.3907 17.4572 85.7736 17.4098 86.0542 17.3625L86.0797 20.0817C85.569 20.2709 84.6502 20.3893 83.5523 20.3893C82.3014 20.3893 81.2547 19.987 80.6421 19.3961C79.9275 18.7103 79.5702 17.599 79.5702 15.9673V11.2385H77.9108V8.58997H79.5702V6.08358L83.3737 5.27959Z" fill="var(--fill-0, white)"/>
<path fill-rule="evenodd" clip-rule="evenodd" d="M68.2854 17.0069C69.0004 17.4089 70.4811 17.8819 71.6297 17.8819C72.8042 17.8819 73.2894 17.5033 73.2894 16.9124C73.2894 16.3213 72.9065 16.0374 71.4514 15.5884C68.8729 14.7844 67.877 13.4836 67.9025 12.1122C67.9025 9.96074 69.894 8.32908 72.9829 8.32908C74.438 8.32908 75.7401 8.63634 76.5058 8.99128L75.8164 11.474C75.2549 11.1901 74.1827 10.8118 73.1104 10.8118C72.166 10.8118 71.6297 11.1664 71.6297 11.7576C71.6297 12.3017 72.1149 12.5852 73.6467 13.0816C76.021 13.8386 77.0165 14.9498 77.0421 16.6522C77.0421 18.804 75.2038 20.3883 71.6297 20.3883C69.9959 20.3883 68.5408 20.057 67.5964 19.5843L68.2854 17.0069Z" fill="var(--fill-0, white)"/>
<path fill-rule="evenodd" clip-rule="evenodd" d="M66.1405 16.4396C66.1405 17.9528 66.1914 19.1828 66.2428 20.1519H62.873L62.694 18.5206H62.6176C62.1325 19.2298 60.9579 20.4121 58.7115 20.4121C56.1841 20.4121 54.3205 18.9459 54.3205 15.3757V8.58914H58.2266V14.8082C58.2266 16.4866 58.8137 17.5034 60.1669 17.5034C61.2389 17.5034 61.8515 16.8179 62.1069 16.2504C62.2092 16.0376 62.2344 15.7537 62.2344 15.4701V8.58914H66.1405V16.4396Z" fill="var(--fill-0, white)"/>
<path fill-rule="evenodd" clip-rule="evenodd" d="M45.0019 12.3961C45.0019 10.6937 44.9511 9.58243 44.9 8.58929H48.2443L48.3718 10.7174H48.4741C49.1123 9.03865 50.6438 8.32908 51.8436 8.32908C52.2012 8.32908 52.3799 8.32908 52.6608 8.37645V11.7579C52.3799 11.7105 52.0481 11.6631 51.6141 11.6631C50.1846 11.6631 49.2142 12.3727 48.9589 13.484C48.9081 13.7202 48.8822 14.0041 48.8822 14.2879V20.1521H45.0019V12.3961Z" fill="var(--fill-0, white)"/>
<path fill-rule="evenodd" clip-rule="evenodd" d="M36.5515 7.24151H31.9304V4.21502H45.1548V7.24151H40.4573V20.1521H36.5515V7.24151Z" fill="var(--fill-0, white)"/>
<path fill-rule="evenodd" clip-rule="evenodd" d="M26.2988 17.669C26.2986 21.1654 23.1924 24 19.3613 24H0V6.33098C5.29221e-05 2.83442 3.10627 0 6.9375 0H26.2988V17.669ZM20.9199 4.92552C20.7055 4.72662 20.3534 4.72661 20.1387 4.92552L10.3809 13.9639C10.1661 14.1628 9.81504 14.1628 9.60058 13.9639L6.04687 10.6738C5.83243 10.475 5.48135 10.4749 5.2666 10.6738L2.9248 12.8425C2.71035 13.0414 2.71035 13.3673 2.9248 13.5663L9.60058 19.7488C9.81506 19.9472 10.1661 19.9474 10.3809 19.7488L23.2617 7.81798C23.4762 7.61904 23.4762 7.29404 23.2617 7.09509L20.9199 4.92552Z" fill="var(--fill-0, white)"/>
</g>
</svg>
