<svg preserveAspectRatio="none" width="100%" height="100%" overflow="visible" style="display: block;" viewBox="0 0 471 553" fill="none" xmlns="http://www.w3.org/2000/svg">
<path id="Vector" d="M377.631 16.6116H135.568V0H377.631V16.6116ZM332.441 59.6356H45.1894V76.2472H332.441V59.6356ZM287.252 119.105H0V135.717H287.252V119.105ZM335.266 178.741H90.3788V195.352H335.266V178.741ZM135.734 254.988H380.621V238.376H135.734V254.988ZM180.924 314.624H425.811V298.012H180.924V314.624ZM226.113 357.482V374.093H471V357.482H226.113ZM138.559 433.729H425.811V417.117H138.559V433.729ZM48.0138 493.364H335.266V476.753H48.0138V493.364ZM2.82434 553H290.076V536.388H2.82434V553Z" fill="var(--fill-0, white)" fill-opacity="0.1"/>
</svg>
