<svg preserveAspectRatio="none" width="100%" height="100%" overflow="visible" style="display: block;" viewBox="0 0 13.6 11.7823" fill="none" xmlns="http://www.w3.org/2000/svg">
<path id="Line 6" d="M0.8 5.09117C0.358172 5.09117 0 5.44934 0 5.89117C0 6.333 0.358172 6.69117 0.8 6.69117V5.89117V5.09117ZM13.3657 6.45685C13.6781 6.14444 13.6781 5.6379 13.3657 5.32548L8.27452 0.234315C7.9621 -0.0781045 7.45557 -0.0781045 7.14315 0.234315C6.83073 0.546734 6.83073 1.05327 7.14315 1.36569L11.6686 5.89117L7.14315 10.4167C6.83073 10.7291 6.83073 11.2356 7.14315 11.548C7.45557 11.8604 7.9621 11.8604 8.27452 11.548L13.3657 6.45685ZM0.8 5.89117V6.69117H12.8V5.89117V5.09117H0.8V5.89117Z" fill="var(--stroke-0, white)"/>
</svg>
